<svg xmlns="http://www.w3.org/2000/svg" width="638.815" height="389.71" viewBox="0 0 638.815 389.71">
  <g id="_103_resting" data-name="#103_resting" transform="translate(-44 -55.09)">
    <path id="Trazado_265" data-name="Trazado 265" d="M668.361,209.188H57.844a1.024,1.024,0,0,1,0-2.048H668.361a1.024,1.024,0,1,1,0,2.048Z" transform="translate(13.43 159.28)" fill="#d1d3d4"/>
    <path id="Trazado_266" data-name="Trazado 266" d="M91.771,286.3a3.092,3.092,0,0,1-3.071-3.071V185.311a3.071,3.071,0,1,1,6.143,0v97.914A3.071,3.071,0,0,1,91.771,286.3Z" transform="translate(46.825 133.196)" fill="#231f20"/>
    <path id="Trazado_267" data-name="Trazado 267" d="M485.665,304.633a87.041,87.041,0,0,1-8.5,38.9c-16.954,35.443-56.819,57.331-96.071,66.5-32.863,7.658-67,7.965-100.739,6.552-35.832-1.495-73.2-5.426-103.4-24.755a149.122,149.122,0,0,1-60.382-78.36C104.289,275.067,100.48,234.5,98.719,194.23a219.813,219.813,0,0,1,.164-28.666,100.528,100.528,0,0,1,1.6-11.016A86.386,86.386,0,0,1,123,112.225a103.508,103.508,0,0,1,8.19-7.658C164.548,76.823,216.7,69.9,253.78,94.514c26.045,17.24,52.4,29.73,70.5,56.635,5.487,8.19,10.074,16.872,15.52,25.021a136.08,136.08,0,0,0,65.132,50.82,111.923,111.923,0,0,0,20.6,5.16c19.022,3.194,37.163,4.668,48.629,24.345,7.74,13.248,10.586,28.829,11.364,44.145,0,1.044.1,2.048.123,3.051C485.644,304,485.665,304.306,485.665,304.633Z" transform="translate(56.913 25.463)" fill="#fff"/>
    <path id="Trazado_268" data-name="Trazado 268" d="M202.6,80.44a93.8,93.8,0,0,1,52.212,15.131c26.045,17.24,52.4,29.73,70.5,56.635,5.487,8.19,10.074,16.872,15.52,25.021a136.08,136.08,0,0,0,65.133,50.82,111.917,111.917,0,0,0,20.619,5.139c19,3.194,37.163,4.668,48.629,24.345,7.74,13.248,10.586,28.829,11.364,44.145,0,1.044.1,2.048.123,3.051v.983a87.042,87.042,0,0,1-8.5,38.9c-16.954,35.443-56.819,57.331-96.071,66.5-23.588,5.508-47.851,7.207-72.135,7.207-9.542,0-19.083-.266-28.666-.655-35.832-1.495-73.2-5.426-103.4-24.755a149.122,149.122,0,0,1-60.382-78.36c-12.285-38.412-16.094-78.974-17.855-119.249a219.806,219.806,0,0,1,.164-28.666,100.532,100.532,0,0,1,1.6-11.016A86.386,86.386,0,0,1,123.972,113.3a103.512,103.512,0,0,1,8.19-7.658A111.612,111.612,0,0,1,202.537,80.46m0-2.048a113.8,113.8,0,0,0-71.664,25.656,102.371,102.371,0,0,0-8.354,7.822A88.72,88.72,0,0,0,99.525,155.2a101.539,101.539,0,0,0-1.618,11.241,216.607,216.607,0,0,0-.184,28.952c1.6,36.344,4.955,78.974,17.957,119.782A152.072,152.072,0,0,0,176.9,394.636c30.427,19.472,68.163,23.567,104.425,25.082,10.627.45,20,.655,28.666.655,28.277,0,51.332-2.314,72.606-7.269,46.561-10.852,82.086-35.5,97.443-67.569a89.171,89.171,0,0,0,8.7-39.845v-.532a3.037,3.037,0,0,1,0-.43q0-1.495-.123-3.01v-.143c-.942-18.551-4.75-33.293-11.651-45.046-11.057-19.022-27.908-21.745-45.722-24.571l-4.32-.819a111.056,111.056,0,0,1-20.25-5,134.114,134.114,0,0,1-64.15-50.042c-2.662-3.972-5.18-8.19-7.617-12.285s-5.1-8.579-7.9-12.736c-14.7-21.827-34.46-34.153-55.386-47.216-5.139-3.215-10.463-6.532-15.684-9.992A95.928,95.928,0,0,0,202.7,78.413Z" transform="translate(55.862 24.426)" fill="#231f20"/>
    <path id="Trazado_269" data-name="Trazado 269" d="M209.949,145.054h-.225a1,1,0,0,1-.758-1.229c1.863-7.965,12.122-12.531,12.551-12.715a1.024,1.024,0,1,1,.819,1.863s-9.746,4.341-11.384,11.323A1.044,1.044,0,0,1,209.949,145.054Z" transform="translate(172.777 79.491)" fill="#d1d3d4"/>
    <path id="Trazado_270" data-name="Trazado 270" d="M189.67,216.955a.9.9,0,0,1-.45-.1,1.024,1.024,0,0,1-.45-1.372c6.982-13.8,19-25.164,26.209-31.184-2.969,1.065-6.368,2.191-10.012,3.378-15.439,5.057-34.624,11.323-37.368,20.23a1.03,1.03,0,0,1-1.966-.614c3.071-9.89,22.83-16.38,38.7-21.561a134.229,134.229,0,0,0,16.749-6.143,1,1,0,0,1,1.331.389.983.983,0,0,1-.287,1.351c-.2.143-21.4,15.008-31.532,35.095A1.024,1.024,0,0,1,189.67,216.955Z" transform="translate(127.37 130.299)" fill="#d1d3d4"/>
    <path id="Trazado_271" data-name="Trazado 271" d="M242.8,198.4a1,1,0,0,1-.9-.553,1.024,1.024,0,0,1,.45-1.372c14.456-7.166,31.43-13.923,47.749-9.705a6.859,6.859,0,0,1,4.484,2.764,1.024,1.024,0,1,1-1.761,1.024,5.139,5.139,0,0,0-3.235-1.8c-15.664-4.1-32.208,2.559-46.336,9.542a.86.86,0,0,1-.451.1Z" transform="translate(207.191 136.572)" fill="#d1d3d4"/>
    <path id="Trazado_272" data-name="Trazado 272" d="M212.864,169.468a1.209,1.209,0,0,1-.45,0,1.044,1.044,0,0,1-.553-.84c-1.331-2.048-16.728-14.333-37.265-20.045-19.267-5.467-36.2-3.583-50.349,5.549a1,1,0,0,1-1.413-.287,1.024,1.024,0,0,1,.307-1.413c35.464-22.933,79.629,5.057,88.679,13.227,1.884,1.7,2.375,2.539,2.048,3.358A1.044,1.044,0,0,1,212.864,169.468Z" transform="translate(82.412 92.711)" fill="#d1d3d4"/>
    <path id="Trazado_273" data-name="Trazado 273" d="M144.362,206.119a1,1,0,0,1-.737-1.72c39.866-42.159,67.569-30.017,68.675-29.485a1.026,1.026,0,1,1-.86,1.863c-.266-.123-27.56-11.958-66.341,29.034a1,1,0,0,1-.737.307Z" transform="translate(104.045 123.404)" fill="#d1d3d4"/>
    <path id="Trazado_274" data-name="Trazado 274" d="M285.282,169.234l11.139-23.281s77.377,27.437,87.737,38.412,11.814,18.244,24.571,17.834h.184c6.143-.88,12.183-6.429,16.851-10.238a269.078,269.078,0,0,0,24.1-22.236,210.057,210.057,0,0,0,20.721-24.018c2.314-3.235,6.02-7.719,6.511-11.732.614-5.016-3.89-12.429-8.19-14.763-10.688-5.958-28.666,11.077-36.856,16.38-4.73,3.03-12.715,10.606-18.223,10.709-3.153,0-7.7-2.723-10.565-3.829-14.8-5.754-29.505-11.876-44.248-17.834-17.548-7.1-35.115-14.21-52.888-20.762-6.511-2.4-13.043-4.812-19.7-6.757-2.723-.8-7.125-2.744-10.033-1.9-9.357,2.744-39.006,50.656-39.006,50.656" transform="translate(202.585 41.817)" fill="#fff"/>
    <path id="Trazado_275" data-name="Trazado 275" d="M408.18,203.716c-9.255,0-12.715-4.279-17.875-10.668-1.8-2.232-3.829-4.75-6.409-7.474-9.5-10.074-77.95-34.808-86.488-37.859l-10.729,22.523a1.024,1.024,0,1,1-1.843-.88l11.139-23.281a1.024,1.024,0,0,1,1.249-.532c3.174,1.126,77.807,27.662,88.167,38.7,2.621,2.805,4.689,5.344,6.511,7.6,5.3,6.573,8.19,10.238,17.22,9.91,5.18-.737,10.34-5,14.517-8.415l1.9-1.556a268.364,268.364,0,0,0,24.018-22.154,208.854,208.854,0,0,0,20.619-23.895l1.065-1.474c2.17-2.948,4.873-6.614,5.262-9.808.573-4.586-3.788-11.63-7.576-13.739-7.924-4.4-21.008,5.426-29.648,11.937-2.4,1.8-4.464,3.358-6.143,4.464-1.229.8-2.744,1.945-4.341,3.153-4.709,3.583-10.053,7.637-14.435,7.719a20.946,20.946,0,0,1-8.19-2.682c-.983-.471-1.9-.9-2.7-1.208-10.422-4.1-20.967-8.354-31.143-12.511l-13.1-5.344c-17.158-6.941-34.911-14.128-52.888-20.742-6.02-2.232-12.859-4.75-19.615-6.736l-1.863-.614c-2.478-.839-5.569-1.884-7.6-1.29-7.371,2.17-30.242,36.979-38.432,50.206a1,1,0,0,1-1.392.328,1.024,1.024,0,0,1-.348-1.413c1.229-2.048,29.976-48.261,39.6-51.189,2.641-.758,6.143.389,8.825,1.331l1.781.573c6.818,2.048,13.7,4.546,19.759,6.777,18,6.634,35.75,13.821,52.929,20.783l13.1,5.324c10.238,4.1,20.721,8.456,31.143,12.511.819.307,1.781.778,2.826,1.269a20.884,20.884,0,0,0,7.248,2.477h0c3.706,0,8.989-4.1,13.227-7.31,1.618-1.229,3.153-2.4,4.464-3.235,1.658-1.065,3.706-2.6,6.143-4.382,9.6-7.248,22.789-17.138,31.88-12.081,4.443,2.478,9.3,10.238,8.6,15.787-.45,3.706-3.317,7.617-5.631,10.77-.369.491-.717.962-1.044,1.433a211.97,211.97,0,0,1-20.824,24.141,272.1,272.1,0,0,1-24.2,22.318l-1.9,1.536c-4.361,3.6-9.767,8.067-15.439,8.866h-1.31Z" transform="translate(202.11 41.325)" fill="#231f20"/>
    <path id="Trazado_276" data-name="Trazado 276" d="M229.244,150.319l-24.714,3.358L167.1,124.787l17.384-7.8L175.8,95.056s-61.631-14.619-71.951.635c-27.171,40.193,34.522,63.331,75.964,106.759,0,0,37.04,66.156,86,110.261,0,0,44.288-30.713,73.712-70.17l-30.979-80.182S332.3,67.68,321.24,57.668s-83.4,20.291-83.4,20.291l13.78,17.732,27.089-.635-4.689,26.024S241.918,133.632,229.244,150.319Z" transform="translate(55.691 0.575)" fill="#cca6ed"/>
    <path id="Trazado_277" data-name="Trazado 277" d="M136.306,86.038a11.18,11.18,0,0,1,12.388-2.048,10.4,10.4,0,0,1-.43-10.524,26.332,26.332,0,0,1,7.207-8.19,42.343,42.343,0,0,1,13.043-8.19c12.633-4.443,26.618,1.515,37.286,9.664,5.672,4.341,12.47,11.057,12.8,18.715.287,7.1-6.368,16.913-9.89,22.933-5.037,8.579-11.364,16.688-19.8,21.97-22.359,13.985-49.141,0-56.308-24-1.7-5.631-2.048-12.06.983-17.138a12.777,12.777,0,0,1,2.723-3.194Z" transform="translate(91.461 0.502)" fill="#fff"/>
    <path id="Trazado_278" data-name="Trazado 278" d="M170.5,137.5a36.139,36.139,0,0,1-12.9-2.416A42.794,42.794,0,0,1,132.127,107.2c-2.048-6.88-1.679-13.248,1.085-17.977a13.452,13.452,0,0,1,2.948-3.46h0a12.9,12.9,0,0,1,10.934-3.071,12.1,12.1,0,0,1,.758-9.071,26.843,26.843,0,0,1,7.474-8.641,43.8,43.8,0,0,1,13.37-8.354c11.077-3.89,25.021-.307,38.228,9.828,5.836,4.484,12.859,11.487,13.207,19.493.266,6.429-4.771,14.763-8.456,20.844-.573.942-1.106,1.822-1.577,2.641-6.143,10.361-12.674,17.67-20.127,22.339A36.732,36.732,0,0,1,170.5,137.5ZM137.471,87.318a11.65,11.65,0,0,0-2.478,2.948c-3.358,5.692-2.048,12.674-.9,16.38a40.767,40.767,0,0,0,24.222,26.618,33.969,33.969,0,0,0,30.57-3.153c7.166-4.484,13.534-11.569,19.431-21.643.491-.819,1.024-1.72,1.618-2.662,3.542-5.856,8.395-13.882,8.19-19.677-.307-7.228-6.921-13.76-12.388-17.957-6-4.607-21.52-14.722-36.324-9.521a41.668,41.668,0,0,0-12.736,7.965,25.431,25.431,0,0,0-7.064,7.883,9.316,9.316,0,0,0,.328,9.46,1.024,1.024,0,0,1-1.31,1.515,10.238,10.238,0,0,0-11.241,1.843Z" transform="translate(90.952 0)" fill="#231f20"/>
    <path id="Trazado_279" data-name="Trazado 279" d="M206.137,126.247l10.688,16.933S219.2,156.612,201,160.789s-26.27-8.026-26.27-8.026L151.57,118.548s8.845-12.429-7.74-36.856A89.867,89.867,0,0,0,188.876,66.52s21.52,24.571,25.82,38.248S206.137,126.247,206.137,126.247Z" transform="translate(104.577 11.973)" fill="#fff"/>
    <path id="Trazado_280" data-name="Trazado 280" d="M194.236,163.178a24.427,24.427,0,0,1-19.861-9.337l-23.137-34.215a1.024,1.024,0,0,1,0-1.167c0-.123,8.19-12.285-7.74-35.648a1,1,0,0,1,0-1.065,1.044,1.044,0,0,1,.9-.532,89.58,89.58,0,0,0,44.555-15.009,1.044,1.044,0,0,1,1.351.184c.88,1.024,21.684,25,26.024,38.6,3.829,12.04-5.324,19.9-8.19,22.052l10.238,16.114a1.535,1.535,0,0,1,.143.369c0,.143,2.314,14.333-16.626,18.756a32.761,32.761,0,0,1-7.658.9Zm-40.951-44.166,22.789,33.682c.328.491,7.965,11.548,25.205,7.6,16.032-3.686,15.275-14.6,15.07-16.237l-10.586-16.667a1.044,1.044,0,0,1-.123-.778,1.024,1.024,0,0,1,.471-.655c.491-.307,12.285-7.637,8.19-20.25-3.808-11.958-21.581-33.15-25.042-37.2a93.429,93.429,0,0,1-43,14.763C159.879,104.209,154.924,116.207,153.286,119.013Z" transform="translate(104.069 11.468)" fill="#231f20"/>
    <path id="Trazado_281" data-name="Trazado 281" d="M168,103.44a14.476,14.476,0,0,1-9.808,5.16,15.6,15.6,0,0,1-13.678-6.7,13.309,13.309,0,0,1-2.58-5.283,6.962,6.962,0,0,1,1.147-5.61,11.241,11.241,0,0,1,6.245-3.133c3.419-.88,4.627.451,7.74,1.249-.307,0-.88-.471-1.188-.512" transform="translate(102.415 34.044)" fill="#fff"/>
    <path id="Trazado_282" data-name="Trazado 282" d="M157.507,110.125a16.749,16.749,0,0,1-13.268-7.146,14.005,14.005,0,0,1-2.785-5.672,8.006,8.006,0,0,1,1.31-6.368,11.978,11.978,0,0,1,6.8-3.481,8.7,8.7,0,0,1,6,.512l.573.2a1.249,1.249,0,0,1,.389,0,2.56,2.56,0,0,1,.921.369l.287.143h0a1.044,1.044,0,1,1-.409,2.048h-.246a23.172,23.172,0,0,1-2.293-.758,6.675,6.675,0,0,0-4.791-.45,9.972,9.972,0,0,0-5.672,2.764,5.9,5.9,0,0,0-.962,4.771,11.937,11.937,0,0,0,2.4,4.832,14.558,14.558,0,0,0,12.777,6.306,13.575,13.575,0,0,0,9.214-4.976,1.025,1.025,0,0,1,1.577,1.31,15.5,15.5,0,0,1-10.524,5.528A9.064,9.064,0,0,1,157.507,110.125Z" transform="translate(101.895 33.582)" fill="#231f20"/>
    <path id="Trazado_283" data-name="Trazado 283" d="M194.508,110.064a26.065,26.065,0,0,1-18,.225c-10.586-3.317-12.92-9.378-12.92-9.378s12.285,2.232,21.847-5.221Z" transform="translate(125.276 42.53)" fill="#231f20"/>
    <path id="Trazado_284" data-name="Trazado 284" d="M186.063,113.246a30.877,30.877,0,0,1-9.337-1.474c-10.934-3.44-13.473-9.746-13.575-10.013a1,1,0,0,1,.184-1,.962.962,0,0,1,.962-.348c.123,0,11.937,2.048,21.028-5.016a1.024,1.024,0,0,1,.8-.2,1.085,1.085,0,0,1,.7.45l9.071,14.333a.983.983,0,0,1,.123.819,1.126,1.126,0,0,1-.532.655,23.343,23.343,0,0,1-9.419,1.8Zm-20-10.586a21.806,21.806,0,0,0,11.282,7.166,26.455,26.455,0,0,0,16.155.225l-7.822-12.285a30.713,30.713,0,0,1-19.615,4.935Z" transform="translate(124.753 41.989)" fill="#231f20"/>
    <path id="Trazado_285" data-name="Trazado 285" d="M161.67,77.78S176.8,85.724,176,88.96s-7.146,4.832-7.146,4.832" transform="translate(123.265 23.769)" fill="#fff"/>
    <path id="Trazado_286" data-name="Trazado 286" d="M169.38,95.335a1.019,1.019,0,0,1-.266-2.007c1.495-.389,5.876-2.048,6.409-4.1.287-1.31-6.306-6.143-13.8-10.013a1.026,1.026,0,0,1,.942-1.822c4.771,2.5,15.746,8.7,14.845,12.285s-7.166,5.406-7.883,5.59Z" transform="translate(122.742 23.25)" fill="#231f20"/>
    <ellipse id="Elipse_14" data-name="Elipse 14" cx="2.355" cy="3.317" rx="2.355" ry="3.317" transform="translate(270.89 104.064) rotate(-23.65)" fill="#231f20"/>
    <ellipse id="Elipse_15" data-name="Elipse 15" cx="2.355" cy="3.317" rx="2.355" ry="3.317" transform="matrix(0.757, -0.653, 0.653, 0.757, 290.022, 94.628)" fill="#231f20"/>
    <path id="Trazado_287" data-name="Trazado 287" d="M176.736,104.211a14.332,14.332,0,0,1-6.327-1.495,20.824,20.824,0,0,1-7.433-6.388h0a1.044,1.044,0,0,1-.164-.819c.123-.594.184-.819,18.96-11.323a1.024,1.024,0,0,1,1.29.246c.225.266,5.467,6.757,4.1,12.961a8.764,8.764,0,0,1-4.955,5.631,12.449,12.449,0,0,1-5.467,1.188Zm-11.466-8.19a18.428,18.428,0,0,0,6.02,4.935,11.507,11.507,0,0,0,9.992.287,6.716,6.716,0,0,0,3.849-4.1c.921-4.238-1.945-8.866-3.174-10.565-5.774,3.051-14.067,7.74-16.688,9.357Z" transform="translate(124.437 30.344)" fill="#231f20"/>
    <path id="Trazado_288" data-name="Trazado 288" d="M166.72,96.141c7.31,3.542,14.333-.266,15.3-4.607a9.746,9.746,0,0,0-8.415-1.781,13.678,13.678,0,0,0-6.88,6.388Z" transform="translate(128.555 35.998)" fill="#231f20"/>
    <path id="Trazado_289" data-name="Trazado 289" d="M173.132,99.133a14.333,14.333,0,0,1-6.327-1.495,1.024,1.024,0,0,1-.45-1.413,14.927,14.927,0,0,1,7.412-6.859c2.662-1,5.795-.369,9.316,1.884a1.024,1.024,0,0,1,.43,1.085,8.7,8.7,0,0,1-4.935,5.59A12.449,12.449,0,0,1,173.132,99.133Zm-4.423-2.887a11.18,11.18,0,0,0,8.968-.164,7.207,7.207,0,0,0,3.645-3.522,8.19,8.19,0,0,0-6.859-1.29,12.285,12.285,0,0,0-5.754,4.976Z" transform="translate(128.04 35.422)" fill="#231f20"/>
    <path id="Trazado_290" data-name="Trazado 290" d="M215.782,182.469s39.211-68.163,41.934-69.453,61.877,36.856,61.877,36.856l-39.661,84.2S208.574,219.489,215.782,182.469Z" transform="translate(179.414 60.647)" fill="#231f20"/>
    <path id="Trazado_291" data-name="Trazado 291" d="M280.432,235.66h-.2a169.128,169.128,0,0,1-34.972-12.06c-22.523-11.077-32.966-25.205-29.956-40.808a1.539,1.539,0,0,1,.1-.328c9.234-16.053,39.579-68.531,42.3-69.883s35.689,19.39,62.942,37.02a1.024,1.024,0,0,1,.368,1.29l-39.661,84.175a1,1,0,0,1-.921.594Zm-63.167-52.335c-6.143,33.375,54.915,48.4,62.594,50.144l38.9-82.66c-21.622-13.964-56.1-35.545-60.259-36.344C255.677,117.312,232.437,156.932,217.265,183.325Z" transform="translate(178.913 60.16)" fill="#231f20"/>
    <path id="Trazado_292" data-name="Trazado 292" d="M250.44,161.69s88.208-37.1,100.33-26.229,25.328,172.895,28.666,174.41c14.435,6.532,39.64,16.524,40.582,16.565,4.73.184,26.987,1.8,18.571,11.159-6.88,7.658-16.565,5.078-25.717,5.569-12.142.655-14.8,1.065-26.946,1.392q-16.606.43-33.211.635a14.476,14.476,0,0,1-14.026-10.361L309.061,199.508l-38.269,18.817Z" transform="translate(216.256 82.102)" fill="#fff"/>
    <path id="Trazado_293" data-name="Trazado 293" d="M353,346.7a15.561,15.561,0,0,1-14.927-11L308.711,201.586l-37.1,18.244a.962.962,0,0,1-.819,0,.983.983,0,0,1-.594-.614l-20.168-56.7a1.044,1.044,0,0,1,.573-1.29c3.624-1.536,88.946-37.224,101.313-26.065,7.453,6.736,14.763,63.945,22.236,127.091,2.723,22.953,5.3,44.678,6.45,47.278,14.333,6.45,38.432,16.012,40.071,16.38,4.259.164,18.674,1.188,21.008,6.716.8,1.863.184,3.931-1.8,6.143-5.61,6.143-13,6.143-20.148,5.917h-6.306c-4.1.225-7.207.43-9.91.594-5.262.348-9.05.573-17.056.8-11.323.287-22.523.512-33.211.635Zm-43.49-147.731a.962.962,0,0,1,1,.8L340.12,335.086A13.493,13.493,0,0,0,353,344.648h.143c10.729-.123,21.888-.348,33.211-.635,7.944-.2,11.732-.45,16.974-.8,2.7-.164,5.754-.369,9.931-.573,2.048-.123,4.341,0,6.47,0,6.982.164,13.575.307,18.551-5.242,1.413-1.577,1.9-2.907,1.454-3.972-1.372-3.276-10.975-5.139-19.308-5.467-1.372,0-28.072-10.811-40.951-16.647-1.495-.676-2.478-7.064-7.412-48.814-5.61-47.4-14.087-119.024-21.581-125.781-9.357-8.456-73.22,15.582-98.282,26.024l19.6,54.67,37.224-18.326a.859.859,0,0,1,.491-.123Z" transform="translate(215.767 81.621)" fill="#231f20"/>
    <path id="Trazado_294" data-name="Trazado 294" d="M179.53,223.7s37.859,46.111,79.4,46.111S362.724,211.5,362.724,211.5L329.963,140.61l-76.64,12.92S187.8,206.93,179.53,223.7Z" transform="translate(141.974 89.586)" fill="#231f20"/>
    <path id="Trazado_295" data-name="Trazado 295" d="M259.453,271.335c-21.745,0-42.4-12.654-55.9-23.26a172.686,172.686,0,0,1-24.284-23.219.962.962,0,0,1-.123-1.085c8.19-16.708,71.275-68.327,73.957-70.5a.921.921,0,0,1,.471-.225l76.619-12.92a1.024,1.024,0,0,1,1.106.573l32.761,70.886a1,1,0,0,1-.225,1.188,375.26,375.26,0,0,1-36.426,29.239C299.769,261.466,276.878,271.335,259.453,271.335Zm-78.175-47.257c4.3,5.037,39.948,45.23,78.175,45.23,38.617,0,96.337-51.844,102.541-57.536l-32.228-69.494-75.575,12.736C250.157,158.31,190.287,207.615,181.278,224.078Z" transform="translate(141.455 89.065)" fill="#231f20"/>
    <path id="Trazado_296" data-name="Trazado 296" d="M211.457,173.156a1.04,1.04,0,0,1-.369-2.048c37.634-15.316,85.813-30.836,86.284-30.979a1,1,0,0,1,1.29.655,1.044,1.044,0,0,1-.655,1.29c-.491.143-48.588,15.643-86.161,30.918a.84.84,0,0,1-.389.164Z" transform="translate(174.136 89.023)" fill="#fff"/>
    <path id="Trazado_297" data-name="Trazado 297" d="M367.031,113s-42.773,30.447-52.131,51.189" transform="translate(283.781 60.663)" fill="#fff"/>
    <path id="Trazado_298" data-name="Trazado 298" d="M315.428,165.615a1.106,1.106,0,0,1-.43,0,1.024,1.024,0,0,1-.512-1.351c9.378-20.721,50.718-50.308,52.479-51.557a1.024,1.024,0,0,1,1.413.225,1.044,1.044,0,0,1-.225,1.433c-.43.307-42.65,30.508-51.783,50.738a1.044,1.044,0,0,1-.942.512Z" transform="translate(283.253 60.159)" fill="#231f20"/>
    <path id="Trazado_299" data-name="Trazado 299" d="M183.988,133.6a.983.983,0,0,1-.819-.43c-17.527-24.243-59.563-47.094-59.993-47.216a1.024,1.024,0,0,1,.962-1.8c.43.225,42.9,23.2,60.689,47.831a1,1,0,0,1-.246,1.413A.942.942,0,0,1,183.988,133.6Z" transform="translate(82.437 30.354)" fill="#231f20"/>
    <path id="Trazado_300" data-name="Trazado 300" d="M186.36,85.2h-.184a1.044,1.044,0,0,1-.84-1.188,33.211,33.211,0,0,1,8.559-17.67,1.024,1.024,0,1,1,1.392,1.495,31.737,31.737,0,0,0-7.924,16.565A1.044,1.044,0,0,1,186.36,85.2Z" transform="translate(148.044 11.451)" fill="#231f20"/>
    <ellipse id="Elipse_16" data-name="Elipse 16" cx="93.552" cy="25.717" rx="93.552" ry="25.717" transform="translate(45.044 292.79)" fill="#fff"/>
    <path id="Trazado_301" data-name="Trazado 301" d="M138.6,224.172c-53.032,0-94.6-11.753-94.6-26.741s41.565-26.761,94.6-26.761,94.576,11.753,94.576,26.761S191.628,224.172,138.6,224.172Zm0-51.455c-50.144,0-92.549,11.323-92.549,24.714s42.4,24.693,92.549,24.693,92.529-11.323,92.529-24.693S188.762,172.718,138.6,172.718Z" transform="translate(0 121.076)" fill="#231f20"/>
    <path id="Trazado_302" data-name="Trazado 302" d="M145.986,257.971a3.071,3.071,0,0,1-3.071-3.071c0-6.47-19.308-14.783-32.761-18.592-13.534,3.808-32.761,12.121-32.761,18.592a3.071,3.071,0,1,1-6.143,0c0-13.678,31.819-23.014,38.187-24.734a3.092,3.092,0,0,1,1.618,0c6.368,1.72,38.187,11.057,38.187,24.734a3.071,3.071,0,0,1-3.256,3.071Z" transform="translate(28.546 183.287)" fill="#231f20"/>
    <circle id="Elipse_17" data-name="Elipse 17" cx="14.169" cy="14.169" r="14.169" transform="translate(71.273 229.172)" fill="#fff"/>
    <path id="Trazado_303" data-name="Trazado 303" d="M72.034,170.057a15.254,15.254,0,1,1,10.788-4.49A15.234,15.234,0,0,1,72.034,170.057Zm0-28.359a13.125,13.125,0,1,0,13.125,13.063A13.125,13.125,0,0,0,72.034,141.7Z" transform="translate(13.409 88.518)" fill="#231f20"/>
    <path id="Trazado_304" data-name="Trazado 304" d="M68.544,221.563H105.81l4.464-74.183H64.06Z" transform="translate(21.014 96.678)" fill="#fff"/>
    <path id="Trazado_305" data-name="Trazado 305" d="M106.345,223.173H69.08a1.065,1.065,0,0,1-1.065-1l-4.464-74.183A1.044,1.044,0,0,1,64.6,146.86h46.213a1.044,1.044,0,0,1,.758.287,1.065,1.065,0,0,1,.287.8l-4.382,74.224a1.044,1.044,0,0,1-1.126,1Zm-36.283-2.048h35.361l4.341-72.094H65.722Z" transform="translate(20.478 96.133)" fill="#231f20"/>
    <path id="Trazado_306" data-name="Trazado 306" d="M70.021,200.757H96.455l2.232-39.047H67.81Z" transform="translate(24.942 111.689)" fill="#f97b67"/>
    <path id="Trazado_307" data-name="Trazado 307" d="M79.475,234.862a1.147,1.147,0,0,1-1.065-.839c-.348-1.454,4.1-62.675,6.143-88.946a1.044,1.044,0,0,1,.348-.7l18.551-16.769a1.065,1.065,0,0,1,1.433,1.577l-18.244,16.38c-1.781,24.059-6.265,85.567-6.143,88.045a1,1,0,0,1-.778,1.229Z" transform="translate(36.026 75.68)" fill="#231f20"/>
    <path id="Trazado_308" data-name="Trazado 308" d="M87.311,203.206l-1.331,10.34,61.365,2.027,21.233-32.986-.512-12.8Z" transform="translate(43.976 120.154)" fill="#fff"/>
    <path id="Trazado_309" data-name="Trazado 309" d="M147.935,217.1h0l-61.426-2.048a1.044,1.044,0,0,1-.758-.369.962.962,0,0,1-.225-.778l1.31-10.238a1.044,1.044,0,0,1,.635-.819l80.755-33.416a1.024,1.024,0,0,1,.942,0,1.044,1.044,0,0,1,.471.819l.512,12.8a.88.88,0,0,1-.164.594l-21.233,32.986A1.065,1.065,0,0,1,147.935,217.1Zm-60.2-4.1,59.645,2.048,20.762-32.228-.45-11-78.953,32.6Z" transform="translate(43.488 119.655)" fill="#231f20"/>
    <path id="Trazado_310" data-name="Trazado 310" d="M111.692,168.46,86.63,204.6l58.765,1.74,21.991-35.156Z" transform="translate(44.657 118.76)" fill="#fff"/>
    <path id="Trazado_311" data-name="Trazado 311" d="M145.92,207.887h0l-58.765-1.74a1.065,1.065,0,0,1-.88-.553,1,1,0,0,1,0-1.044l25.062-36.139a1.044,1.044,0,0,1,.88-.45l55.693,2.723a1.024,1.024,0,0,1,.819,1.577L146.739,207.4a1,1,0,0,1-.819.491Zm-56.84-3.727,56.287,1.659,20.742-33.17-53.38-2.559Z" transform="translate(44.132 118.237)" fill="#231f20"/>
    <line id="Línea_1" data-name="Línea 1" x2="1.269" y2="10.627" transform="translate(190.052 325.1)" fill="#fff"/>
    <path id="Trazado_312" data-name="Trazado 312" d="M117.176,199.136a1.044,1.044,0,0,1-1.024-.9l-1.269-10.627a1.044,1.044,0,0,1,.9-1.147,1.065,1.065,0,0,1,1.147.9l1.249,10.627a1.024,1.024,0,0,1-.9,1.147Z" transform="translate(74.247 137.614)" fill="#231f20"/>
    <path id="Trazado_313" data-name="Trazado 313" d="M135.7,183.532h0l-36.713-1.577a1.065,1.065,0,0,1-.88-.573,1.024,1.024,0,0,1,0-1.024l6.143-8.927a1.024,1.024,0,0,1,.88-.43l36.405,1.781a1.09,1.09,0,0,1,.86,1.6l-5.836,8.7a1,1,0,0,1-.86.451Zm-34.808-3.542,34.3,1.474,4.525-6.736-34.071-1.679Z" transform="translate(56.539 121.421)" fill="#2cad87"/>
  </g>
</svg>
