<svg xmlns="http://www.w3.org/2000/svg" width="140.034" height="28.124" viewBox="0 0 140.034 28.124">
  <g id="Grupo_297" data-name="Grupo 297" transform="translate(-2185.095 465.792)">
    <path id="Trazado_87" data-name="Trazado 87" d="M2185.1-451.934v13.858h8.776v-.527a4.105,4.105,0,0,1-1.945-.485,3.925,3.925,0,0,1-2.092-3.451v-18.792a3.924,3.924,0,0,1,2.092-3.451,4.1,4.1,0,0,1,1.945-.485v-.527H2185.1Z" transform="translate(0 0)" fill="#004845"/>
    <path id="Trazado_88" data-name="Trazado 88" d="M2234.774-421.615q-.185-.777-.37-1.85a15.421,15.421,0,0,1-.152-2.035v-12.693h-7.216v.148q0,.036.185.664t.37,1.406a17.3,17.3,0,0,1,.337,1.85,11.851,11.851,0,0,1,.184,2v6.624a12.4,12.4,0,0,1-.184,2.035c-.1.715-.214,1.332-.337,1.85q-.185.74-.37,1.369t-.185.666v.148h8.293v-.148q0-.035-.185-.664T2234.774-421.615Z" transform="translate(-28.329 -18.642)" fill="#004845"/>
    <path id="Trazado_89" data-name="Trazado 89" d="M2231.047-458.316a3.692,3.692,0,0,0,2.661-1.073,3.579,3.579,0,0,0,1.149-2.664,3.512,3.512,0,0,0-1.11-2.627,3.843,3.843,0,0,0-5.365-.037l-.022.022a3.751,3.751,0,0,0,.022,5.306A3.776,3.776,0,0,0,2231.047-458.316Z" transform="translate(-28.487 -0.001)" fill="#004845"/>
    <path id="Trazado_90" data-name="Trazado 90" d="M2278.6-421.118c-.076-.272-.161-.6-.261-1s-.185-.791-.256-1.186-.137-.827-.185-1.3a12.954,12.954,0,0,1-.076-1.369V-432.7a5.919,5.919,0,0,0-1.741-4.552,6.135,6.135,0,0,0-4.365-1.628,6.574,6.574,0,0,0-5.959,3.442v-3.22h-7.216v.148c0,.023.052.245.147.664q.185.629.369,1.406a17.229,17.229,0,0,1,.337,1.85,11.751,11.751,0,0,1,.185,2v6.626a12.418,12.418,0,0,1-.185,2.035c-.1.716-.213,1.332-.337,1.85q-.185.74-.369,1.369c-.1.417-.147.639-.147.664v.148h8.288v-.147q0-.035-.185-.664t-.37-1.369q-.185-.777-.37-1.85a16.214,16.214,0,0,1-.147-2.035v-8.252a5.668,5.668,0,0,1,2.922-.888,3.065,3.065,0,0,1,2.112.814,3.149,3.149,0,0,1,.849,2.443v5.883a12.418,12.418,0,0,1-.185,2.035,18.7,18.7,0,0,1-.332,1.85q-.186.74-.37,1.369c-.1.417-.147.639-.147.664v.148h8.287v-.142a3.209,3.209,0,0,0-.109-.37Q2278.7-420.748,2278.6-421.118Z" transform="translate(-49.607 -18.173)" fill="#004845"/>
    <path id="Trazado_91" data-name="Trazado 91" d="M2389.8-440.258q-.185-.777-.37-1.85a16.128,16.128,0,0,1-.147-2.035v-21.648l-7.771.888v.148l.223.444q.185.444.37,1c.147.346.294.753.446,1.221a8.753,8.753,0,0,1,.4,1.554,8.6,8.6,0,0,1,.152,1.554v4.773a6.084,6.084,0,0,0-5.441-2.85,6.767,6.767,0,0,0-5.257,2.48q-2.145,2.48-2.145,7.069,0,4.7,2.259,7.255a6.867,6.867,0,0,0,5.29,2.554,6.444,6.444,0,0,0,5.589-3.036,6.241,6.241,0,0,0,.37.925c.147.3.323.617.518.962.2.321.346.58.446.777h5.622v-.15q0-.035-.185-.664T2389.8-440.258Zm-9.175-.52a2.743,2.743,0,0,1-2.221-1.036,5.89,5.89,0,0,1-1.148-2.514,16.125,16.125,0,0,1-.294-3.257,9.558,9.558,0,0,1,.849-4.329,2.941,2.941,0,0,1,2.775-1.665,4.24,4.24,0,0,1,2.519.925v9.765q0,.446.071,1.186A4.632,4.632,0,0,1,2380.622-440.778Z" transform="translate(-125.07 -0.001)" fill="#004845"/>
    <path id="Trazado_92" data-name="Trazado 92" d="M2456.6-440.258q-.185-.777-.37-1.85a15.388,15.388,0,0,1-.151-2.035v-21.648l-7.771.888v.148l.223.444q.185.444.37,1c.147.346.3.753.446,1.221a9.155,9.155,0,0,1,.408,1.554,9.041,9.041,0,0,1,.147,1.554v4.773a6.073,6.073,0,0,0-5.441-2.85,6.758,6.758,0,0,0-5.252,2.48q-2.15,2.48-2.149,7.069,0,4.7,2.258,7.255a6.868,6.868,0,0,0,5.29,2.554,6.443,6.443,0,0,0,5.588-3.036,6.206,6.206,0,0,0,.371.925c.147.3.323.617.517.962.2.321.346.58.446.777h5.626v-.15q0-.035-.185-.664T2456.6-440.258Zm-9.18-.52a2.742,2.742,0,0,1-2.22-1.036,5.937,5.937,0,0,1-1.147-2.514,16.144,16.144,0,0,1-.295-3.257,9.555,9.555,0,0,1,.849-4.329,2.941,2.941,0,0,1,2.775-1.665,4.238,4.238,0,0,1,2.519.925v9.765q0,.446.071,1.186A4.619,4.619,0,0,1,2447.424-440.778Z" transform="translate(-170.192 -0.001)" fill="#004845"/>
    <path id="Trazado_93" data-name="Trazado 93" d="M2521.081-436.44a10.543,10.543,0,0,0-7.107-2.443,10.681,10.681,0,0,0-7.14,2.406q-2.851,2.44-2.851,7.142.005,4.737,2.851,7.29a11.214,11.214,0,0,0,14.247,0,9.223,9.223,0,0,0,2.884-7.29Q2523.97-434,2521.081-436.44Zm-4,7.1a26.8,26.8,0,0,1-.261,3.886,8.97,8.97,0,0,1-1,3.071,2.084,2.084,0,0,1-1.851,1.3q-3.07,0-3.07-8.252,0-7.993,3.07-7.993,1.668,0,2.372,2.331A18.844,18.844,0,0,1,2517.086-429.336Z" transform="translate(-215.393 -18.176)" fill="#004845"/>
    <path id="Trazado_94" data-name="Trazado 94" d="M2582.844-439.675q-3.554,0-5.589,4.329v-3.849h-7.216v.148c0,.023.052.245.147.664q.185.629.371,1.406a17.542,17.542,0,0,1,.337,1.85,11.875,11.875,0,0,1,.185,2v6.624a12.506,12.506,0,0,1-.185,2.035c-.1.715-.214,1.332-.337,1.85-.124.494-.233.95-.332,1.369q-.185.629-.185.666v.148h8.288v-.148q0-.035-.185-.664t-.37-1.369q-.185-.777-.37-1.85a16.166,16.166,0,0,1-.147-2.035v-7.919a3.562,3.562,0,0,1,2.073-.7,7.023,7.023,0,0,1,1.034.148,4.4,4.4,0,0,1,1.779.74,8.9,8.9,0,0,1,1.85,1.554h.185l.963-6.587A7.3,7.3,0,0,0,2582.844-439.675Z" transform="translate(-260.011 -17.641)" fill="#004845"/>
    <path id="Trazado_95" data-name="Trazado 95" d="M2333.65-465.264a4.108,4.108,0,0,1,1.945.485,3.925,3.925,0,0,1,2.092,3.451v18.792a3.925,3.925,0,0,1-2.092,3.451,4.1,4.1,0,0,1-1.945.485v.526h8.777v-27.716h-8.777Z" transform="translate(-100.341 -0.001)" fill="#004845"/>
  </g>
</svg>
